<svg width="25" height="24" viewBox="0 0 25 24" fill="none" xmlns="http://www.w3.org/2000/svg">
<path d="M17.0449 14.47C16.9712 14.5386 16.9121 14.6214 16.8711 14.7134C16.8301 14.8054 16.8081 14.9047 16.8063 15.0054C16.8045 15.1061 16.823 15.2062 16.8608 15.2996C16.8985 15.393 16.9546 15.4778 17.0258 15.549C17.0971 15.6202 17.1819 15.6764 17.2753 15.7141C17.3687 15.7518 17.4687 15.7703 17.5694 15.7686C17.6701 15.7668 17.7694 15.7447 17.8614 15.7038C17.9534 15.6628 18.0362 15.6037 18.1049 15.53L21.1049 12.53C21.2453 12.3893 21.3242 12.1987 21.3242 12C21.3242 11.8012 21.2453 11.6106 21.1049 11.47L18.1049 8.46997C17.9627 8.33749 17.7747 8.26537 17.5804 8.26879C17.3861 8.27222 17.2007 8.35093 17.0633 8.48835C16.9258 8.62576 16.8471 8.81115 16.8437 9.00545C16.8403 9.19975 16.9124 9.38779 17.0449 9.52997L18.7649 11.25H10.5749C10.376 11.25 10.1852 11.329 10.0445 11.4696C9.9039 11.6103 9.82488 11.8011 9.82488 12C9.82488 12.1989 9.9039 12.3896 10.0445 12.5303C10.1852 12.671 10.376 12.75 10.5749 12.75H18.7649L17.0449 14.47Z" fill="#E6FBFF"/>
<path d="M12.5752 20.75C12.7741 20.75 12.9649 20.671 13.1055 20.5303C13.2462 20.3897 13.3252 20.1989 13.3252 20C13.3252 19.8011 13.2462 19.6103 13.1055 19.4697C12.9649 19.329 12.7741 19.25 12.5752 19.25C11.6231 19.25 10.6804 19.0625 9.80074 18.6981C8.92113 18.3338 8.1219 17.7997 7.44867 17.1265C6.77545 16.4533 6.24142 15.6541 5.87707 14.7745C5.51272 13.8948 5.3252 12.9521 5.3252 12C5.3252 11.0479 5.51272 10.1052 5.87707 9.22554C6.24142 8.34593 6.77545 7.5467 7.44867 6.87348C8.1219 6.20025 8.92113 5.66622 9.80074 5.30187C10.6804 4.93753 11.6231 4.75 12.5752 4.75C12.7741 4.75 12.9649 4.67098 13.1055 4.53033C13.2462 4.38968 13.3252 4.19891 13.3252 4C13.3252 3.80109 13.2462 3.61032 13.1055 3.46967C12.9649 3.32902 12.7741 3.25 12.5752 3.25C10.2546 3.25 8.02895 4.17187 6.38801 5.81282C4.74707 7.45376 3.8252 9.67936 3.8252 12C3.8252 14.3206 4.74707 16.5462 6.38801 18.1872C8.02895 19.8281 10.2546 20.75 12.5752 20.75Z" fill="#E6FBFF"/>
</svg>
