<svg width="20" height="21" viewBox="0 0 20 21" fill="none" xmlns="http://www.w3.org/2000/svg">
<path d="M4.90318 15.9869C4.65318 15.8202 4.43818 15.6069 4.18651 15.3069C4.05589 15.147 3.92644 14.9861 3.79818 14.8244C3.41235 14.3452 3.16901 14.1235 2.91818 14.0327C2.81264 13.9978 2.71515 13.9421 2.63147 13.8689C2.54778 13.7957 2.47958 13.7065 2.43088 13.6066C2.38218 13.5066 2.35398 13.398 2.34792 13.287C2.34186 13.176 2.35807 13.0649 2.39561 12.9602C2.43314 12.8556 2.49123 12.7595 2.56646 12.6776C2.64168 12.5958 2.73253 12.5298 2.83364 12.4836C2.93476 12.4374 3.04409 12.4119 3.15521 12.4086C3.26634 12.4053 3.377 12.4242 3.48068 12.4644C4.10735 12.6894 4.53151 13.0769 5.10318 13.7877C5.02485 13.6902 5.38651 14.1435 5.46401 14.2369C5.62235 14.426 5.73901 14.541 5.83068 14.6019C6.00068 14.716 6.32068 14.7652 6.78901 14.7185C6.80901 14.4002 6.86735 14.091 6.95735 13.8052C4.48401 13.201 3.08401 11.6052 3.08401 8.47519C3.08401 7.44352 3.39235 6.51269 3.96568 5.73269C3.78401 4.98769 3.81151 4.08686 4.21735 3.07269C4.2633 2.95781 4.33426 2.85461 4.42507 2.77058C4.51588 2.68654 4.62426 2.62378 4.74235 2.58686C4.80985 2.56686 4.84818 2.55852 4.91568 2.54769C5.58485 2.44519 6.52985 2.68936 7.76151 3.46186C8.49551 3.29026 9.24689 3.20413 10.0007 3.20519C10.7607 3.20519 11.5165 3.29102 12.2373 3.46186C13.4682 2.68436 14.4157 2.43936 15.089 2.54769C15.1598 2.55936 15.2207 2.57436 15.2707 2.59019C15.3864 2.62834 15.4923 2.69138 15.581 2.77489C15.6697 2.8584 15.739 2.96034 15.784 3.07352C16.1898 4.08602 16.2173 4.98686 16.0357 5.73186C16.6115 6.51186 16.9173 7.43602 16.9173 8.47519C16.9173 11.6069 15.5223 13.1969 13.049 13.8027C13.1532 14.1485 13.2073 14.5344 13.2073 14.9527C13.2073 15.506 13.2057 16.0352 13.2015 16.6277C13.2015 16.786 13.1998 16.956 13.1973 17.216C13.3841 17.2571 13.551 17.3612 13.6701 17.5108C13.7892 17.6604 13.8532 17.8463 13.8514 18.0375C13.8497 18.2287 13.7822 18.4135 13.6604 18.5608C13.5386 18.7082 13.3698 18.8092 13.1823 18.8469C12.2323 19.0369 11.529 18.4035 11.529 17.5769L11.5307 17.2044L11.5348 16.6169C11.539 16.0277 11.5415 15.5019 11.5415 14.9527C11.5415 14.3719 11.3882 13.9927 11.1865 13.8185C10.6357 13.3435 10.9148 12.4402 11.6373 12.3594C14.109 12.081 15.2507 11.1235 15.2507 8.47602C15.2507 7.68019 14.9907 7.02186 14.4898 6.47186C14.3846 6.35622 14.3141 6.21331 14.2862 6.05946C14.2584 5.90562 14.2743 5.74704 14.3323 5.60186C14.4707 5.25602 14.529 4.80436 14.4115 4.25686L14.4032 4.25852C13.994 4.37519 13.4782 4.62519 12.8548 5.05019C12.7543 5.1184 12.6401 5.16382 12.5202 5.18325C12.4003 5.20268 12.2776 5.19566 12.1607 5.16269C11.4573 4.96765 10.7306 4.86952 10.0007 4.87102C9.25901 4.87102 8.52401 4.97102 7.84068 5.16269C7.72438 5.1954 7.60236 5.20242 7.48307 5.18329C7.36378 5.16415 7.25008 5.1193 7.14985 5.05186C6.52235 4.62936 6.00485 4.37936 5.59151 4.26269C5.47235 4.80686 5.53151 5.25769 5.66901 5.60186C5.72702 5.74704 5.74301 5.90562 5.71515 6.05946C5.6873 6.21331 5.61673 6.35622 5.51151 6.47186C5.01401 7.01852 4.75068 7.68769 4.75068 8.47519C4.75068 11.1185 5.89318 12.0835 8.35235 12.3585C9.07318 12.4402 9.35401 13.3402 8.80651 13.816C8.64568 13.9552 8.44818 14.426 8.44818 14.9527V17.5769C8.44818 18.3985 7.75318 19.0152 6.81485 18.851C6.6242 18.8181 6.45096 18.7198 6.32485 18.5731C6.19873 18.4263 6.12761 18.2403 6.12367 18.0469C6.11972 17.8534 6.18321 17.6646 6.30324 17.5129C6.42327 17.3611 6.59237 17.2559 6.78151 17.2152V16.3902C6.02318 16.4419 5.39735 16.3177 4.90318 15.9869Z" fill="#E6FBFF"/>
</svg>
